# HOTSHOT CALIFORNIA low-poly palm
o PalmTree
v 0 0 0
v 0.16 0 0
v 0.16 2.25 0
v -0.16 2.25 0
v 0.16 0 0.16
v 0 0 0.16
v 0 2.25 0.16
v -0.16 2.25 0.16
v 0 2.25 0
v 0 2.65 0
v 1.25 2.72 0
v 0.72 2.88 0
v 0.35 3.10 0
v -0.15 2.78 0
v -0.75 2.92 0
v -1.18 2.70 0
v -0.42 2.56 0
v 0.45 2.54 0
v 0.95 2.48 0
v 0 2.25 0.16
v 0 2.65 0.16
v 1.25 2.72 0.05
v 0.72 2.88 0.05
v 0.35 3.10 0.05
v -0.15 2.78 0.05
v -0.75 2.92 0.05
v -1.18 2.70 0.05
v -0.42 2.56 0.05
v 0.45 2.54 0.05
v 0.95 2.48 0.05
f 1 2 3 4
f 5 8 7 6
f 1 5 6 2
f 2 6 7 3
f 3 7 8 4
f 4 8 5 1
f 9 10 11
f 9 11 12
f 9 12 13
f 9 13 14
f 9 14 15
f 9 15 16
f 9 16 17
f 9 17 18
f 9 18 19
f 20 21 22
f 20 22 23
f 20 23 24
f 20 24 25
f 20 25 26
f 20 26 27
f 20 27 28
f 20 28 29
f 20 29 30
