# HOTSHOT CALIFORNIA low-poly retro car
o RetroCar
v -1.45 0.20 -0.65
v 1.45 0.20 -0.65
v 1.45 0.20 0.65
v -1.45 0.20 0.65
v -1.20 0.62 -0.58
v 1.20 0.62 -0.58
v 0.95 0.62 0.58
v -0.95 0.62 0.58
v -0.72 0.92 -0.40
v 0.72 0.92 -0.40
v 0.58 0.92 0.40
v -0.58 0.92 0.40
v -1.55 0.30 -0.45
v -1.55 0.30 0.45
v 1.55 0.30 -0.45
v 1.55 0.30 0.45
v -1.05 0.36 -0.72
v 1.05 0.36 -0.72
v 1.05 0.36 0.72
v -1.05 0.36 0.72
f 1 2 6 5
f 2 3 7 6
f 3 4 8 7
f 4 1 5 8
f 5 6 10 9
f 6 7 11 10
f 7 8 12 11
f 8 5 9 12
f 9 10 6 5
f 10 11 7 6
f 11 12 8 7
f 12 9 5 8
f 13 14 4 1
f 15 2 3 16
f 17 18 2 1
f 19 4 3 20
